<svg width="50" height="50" viewBox="0 0 50 50" fill="none" xmlns="http://www.w3.org/2000/svg">
<path fill-rule="evenodd" clip-rule="evenodd" d="M47.9167 24.9999C47.9167 12.3434 37.6565 2.08325 25 2.08325C12.3435 2.08325 2.08334 12.3434 2.08334 24.9999C2.08334 37.6564 12.3435 47.9166 25 47.9166C37.6565 47.9166 47.9167 37.6564 47.9167 24.9999ZM42.4118 18.0302C40.509 13.2807 36.7192 9.49095 31.9698 7.58808C33.0841 9.73923 33.9582 12.4212 34.5474 15.4525C37.5787 16.0417 40.2607 16.9158 42.4118 18.0302ZM15.4526 15.4525C16.0418 12.4212 16.9159 9.73923 18.0303 7.58808C13.2808 9.49095 9.49103 13.2807 7.58817 18.0302C9.73931 16.9158 12.4213 16.0417 15.4526 15.4525ZM6.25 24.9999C6.25 23.1265 9.64309 21.0937 14.8218 19.8712C14.6647 21.5225 14.5833 23.2395 14.5833 24.9999C14.5833 26.7603 14.6647 28.4774 14.8218 30.1287C9.64309 28.9062 6.25 26.8734 6.25 24.9999ZM7.58817 31.9697C9.73931 33.084 12.4213 33.9581 15.4526 34.5473C16.0418 37.5786 16.9159 40.2606 18.0302 42.4118C13.2808 40.5089 9.49104 36.7191 7.58817 31.9697ZM34.5474 34.5473C33.9582 37.5786 33.0841 40.2606 31.9698 42.4118C36.7192 40.5089 40.509 36.7191 42.4118 31.9697C40.2607 33.084 37.5787 33.9581 34.5474 34.5473ZM35.4167 24.9999C35.4167 26.7603 35.3353 28.4774 35.1782 30.1287C40.3569 28.9062 43.75 26.8734 43.75 24.9999C43.75 23.1265 40.3569 21.0937 35.1782 19.8712C35.3353 21.5225 35.4167 23.2395 35.4167 24.9999ZM18.75 24.9999C18.75 22.9369 18.8794 20.9577 19.1096 19.1095C20.9577 18.8793 22.937 18.7499 25 18.7499C27.063 18.7499 29.0423 18.8793 30.8904 19.1095C31.1206 20.9577 31.25 22.9369 31.25 24.9999C31.25 27.063 31.1206 29.0422 30.8904 30.8903C29.0423 31.1205 27.063 31.2499 25 31.2499C22.937 31.2499 20.9577 31.1205 19.1096 30.8903C18.8794 29.0422 18.75 27.063 18.75 24.9999ZM19.8712 35.1781C21.0937 40.3568 23.1266 43.7499 25 43.7499C26.8734 43.7499 28.9063 40.3568 30.1288 35.1781C28.4775 35.3352 26.7604 35.4166 25 35.4166C23.2396 35.4166 21.5225 35.3352 19.8712 35.1781ZM25 6.24992C23.1266 6.24992 21.0937 9.64301 19.8712 14.8218C21.5225 14.6646 23.2396 14.5833 25 14.5833C26.7604 14.5833 28.4775 14.6646 30.1288 14.8218C28.9063 9.64301 26.8734 6.24992 25 6.24992Z" fill="#545454"/>
</svg>
