<svg width="50" height="50" viewBox="0 0 50 50" fill="none" xmlns="http://www.w3.org/2000/svg">
<path fill-rule="evenodd" clip-rule="evenodd" d="M8.10677 5.34717L11.1783 8.1627C8.11784 11.4996 6.24998 15.948 6.24998 20.8326C6.24998 25.7173 8.11784 30.1657 11.1783 33.5025L8.10677 36.3181C4.36625 32.2397 2.08331 26.8028 2.08331 20.8326C2.08331 14.8625 4.36625 9.42554 8.10677 5.34717ZM41.8932 5.34785C45.6337 9.42622 47.9166 14.8632 47.9166 20.8333C47.9166 26.8034 45.6337 32.2404 41.8932 36.3187L38.8217 33.5032C41.8821 30.1664 43.75 25.718 43.75 20.8333C43.75 15.9486 41.8821 11.5002 38.8217 8.16339L41.8932 5.34785ZM18.1682 45.8333L19.5571 41.6666H30.4428L31.8317 45.8333H36.2238L29.3774 25.2943C30.5331 24.1601 31.25 22.5804 31.25 20.8333C31.25 17.3815 28.4518 14.5833 25 14.5833C21.5482 14.5833 18.75 17.3815 18.75 20.8333C18.75 22.5804 19.4669 24.1601 20.6225 25.2943L13.7762 45.8333H18.1682ZM20.946 37.5L22.3349 33.3333H27.6651L29.054 37.5H20.946ZM26.2762 29.1666L25.5731 27.0574C25.3843 27.0745 25.1932 27.0833 25 27.0833C24.8068 27.0833 24.6156 27.0745 24.4269 27.0574L23.7238 29.1666H26.2762ZM27.0833 20.8333C27.0833 21.9839 26.1506 22.9166 25 22.9166C23.8494 22.9166 22.9166 21.9839 22.9166 20.8333C22.9166 19.6827 23.8494 18.75 25 18.75C26.1506 18.75 27.0833 19.6827 27.0833 20.8333ZM39.5833 20.8333C39.5833 17.0341 38.1305 13.5743 35.7502 10.9789L32.6787 13.7945C34.3789 15.6483 35.4166 18.1196 35.4166 20.8333C35.4166 23.547 34.3789 26.0183 32.6787 27.8721L35.7502 30.6877C38.1305 28.0923 39.5833 24.6325 39.5833 20.8333ZM17.3212 13.7938L14.2498 10.9782C11.8694 13.5736 10.4166 17.0334 10.4166 20.8326C10.4166 24.6318 11.8694 28.0917 14.2498 30.687L17.3212 27.8715C15.621 26.0176 14.5833 23.5463 14.5833 20.8326C14.5833 18.1189 15.621 15.6476 17.3212 13.7938Z" fill="#545454"/>
</svg>
