<svg width="50" height="50" viewBox="0 0 50 50" fill="none" xmlns="http://www.w3.org/2000/svg">
<path fill-rule="evenodd" clip-rule="evenodd" d="M2.08334 24.9999C2.08334 37.6564 12.3435 47.9166 25 47.9166C37.6565 47.9166 47.9167 37.6564 47.9167 24.9999C47.9167 12.3434 37.6565 2.08325 25 2.08325C12.3435 2.08325 2.08334 12.3434 2.08334 24.9999ZM43.75 24.9999C43.75 35.3553 35.3553 43.7499 25 43.7499C14.6447 43.7499 6.25001 35.3553 6.25001 24.9999C6.25001 14.6446 14.6447 6.24992 25 6.24992C35.3553 6.24992 43.75 14.6446 43.75 24.9999ZM25.0668 39.5833C18.0721 39.5833 14.1801 35.8991 14.1801 29.1666V27.0833H35.6579L35.7155 29.1073C35.9079 35.8634 32.0841 39.5833 25.0668 39.5833ZM31.4324 31.2499C30.943 34.1572 28.977 35.4166 25.0668 35.4166C21.1589 35.4166 19.1287 34.1462 18.5349 31.2499H31.4324ZM29.1667 16.6666H35.4167V20.8333H29.1667V16.6666ZM20.8333 16.6666H14.5833V20.8333H20.8333V16.6666Z" fill="#545454"/>
</svg>
